<svg width="77" height="42" viewBox="0 0 77 42" fill="none" xmlns="http://www.w3.org/2000/svg">
<path d="M21.6349 31.4474C26.7557 31.4474 29.848 27.5497 29.858 20.8381C29.8679 14.1761 26.7358 10.358 21.6349 10.358C16.5241 10.358 13.4219 14.1662 13.4119 20.8381C13.392 27.5298 16.5043 31.4375 21.6349 31.4474ZM21.6349 27.8778C19.2983 27.8778 17.7869 25.5312 17.7969 20.8381C17.8068 16.2145 19.3082 13.8878 21.6349 13.8878C23.9517 13.8878 25.4631 16.2145 25.4631 20.8381C25.473 25.5312 23.9616 27.8778 21.6349 27.8778Z" fill="#F5453D"/>
<path d="M4.02202 21.9395H5.19531L5.20526 20.791C7.35795 20.627 8.60582 19.4835 8.6108 17.7584C8.60582 16.0631 7.32812 15.1632 5.55824 14.7655L5.26491 14.6959L5.2848 12.2101C5.94602 12.3642 6.34872 12.7868 6.40838 13.4132H8.47159C8.44673 11.7676 7.21875 10.5893 5.30469 10.3805L5.31463 9.2122H4.14134L4.13139 10.3706C2.1875 10.5595 0.815341 11.7328 0.825284 13.4281C0.820312 14.9295 1.87926 15.7896 3.59943 16.2023L4.0767 16.3216L4.05185 18.9515C3.24148 18.7974 2.6946 18.3003 2.63991 17.47H0.556818C0.606534 19.4785 1.92401 20.6021 4.03196 20.7861L4.02202 21.9395ZM5.22514 18.9515L5.24503 16.6298C6.01562 16.8734 6.43324 17.1866 6.43821 17.7534C6.43324 18.355 5.97585 18.8024 5.22514 18.9515ZM4.09162 14.3926C3.47017 14.1788 3.02273 13.8557 3.03267 13.2839C3.03267 12.752 3.41051 12.3393 4.11151 12.1952L4.09162 14.3926Z" fill="#F5453D"/>
<path d="M39.832 22.625H38.7891L36.2109 32.2031H37.2539L39.832 22.625ZM43.7354 31H44.9033V27.3008C44.9033 26.4922 45.4697 25.9297 46.1338 25.9297C46.7822 25.9297 47.2314 26.3594 47.2314 27.0117V31H48.3955V27.1758C48.3955 26.4531 48.8369 25.9297 49.5986 25.9297C50.2158 25.9297 50.7236 26.2734 50.7236 27.0859V31H51.8916V26.9766C51.8916 25.6055 51.126 24.9219 50.04 24.9219C49.1768 24.9219 48.5283 25.3359 48.2393 25.9766H48.1768C47.915 25.3203 47.3643 24.9219 46.5635 24.9219C45.7705 24.9219 45.1807 25.3164 44.9307 25.9766H44.8564V25H43.7354V31ZM55.9844 31.1211C57.6758 31.1211 58.7813 29.8828 58.7813 28.0273C58.7813 26.1602 57.6758 24.9219 55.9844 24.9219C54.293 24.9219 53.1875 26.1602 53.1875 28.0273C53.1875 29.8828 54.293 31.1211 55.9844 31.1211ZM55.9883 30.1406C54.8828 30.1406 54.3672 29.1758 54.3672 28.0234C54.3672 26.875 54.8828 25.8984 55.9883 25.8984C57.0859 25.8984 57.6016 26.875 57.6016 28.0234C57.6016 29.1758 57.0859 30.1406 55.9883 30.1406ZM61.2529 27.4375C61.2529 26.4805 61.8389 25.9336 62.6514 25.9336C63.4443 25.9336 63.9248 26.4531 63.9248 27.3242V31H65.0928V27.1836C65.0928 25.6992 64.2764 24.9219 63.0498 24.9219C62.1475 24.9219 61.5576 25.3398 61.2803 25.9766H61.2061V25H60.085V31H61.2529V27.4375ZM69.46 25H68.2295V23.5625H67.0615V25H66.1826V25.9375H67.0615V29.4805C67.0576 30.5703 67.8896 31.0977 68.8115 31.0781C69.1826 31.0742 69.4326 31.0039 69.5693 30.9531L69.3584 29.9883C69.2803 30.0039 69.1357 30.0391 68.9482 30.0391C68.5693 30.0391 68.2295 29.9141 68.2295 29.2383V25.9375H69.46V25ZM72.0488 27.4375C72.0488 26.4805 72.6543 25.9336 73.4863 25.9336C74.291 25.9336 74.7715 26.4453 74.7715 27.3242V31H75.9395V27.1836C75.9395 25.6875 75.1191 24.9219 73.8848 24.9219C72.9512 24.9219 72.3887 25.3281 72.1074 25.9766H72.0332V23H70.8809V31H72.0488V27.4375Z" fill="white" fill-opacity="0.8"/>
</svg>
