<svg width="90" height="42" viewBox="0 0 90 42" fill="none" xmlns="http://www.w3.org/2000/svg">
<path d="M14.456 31H18.9006L27.3523 14.206V10.6364H13.0639V14.1562H22.8977V14.2955L14.456 31ZM37.467 31.2784C42.0011 31.2784 45.0835 28.3253 45.0735 24.2088C45.0835 20.3111 42.359 17.5071 38.69 17.5071C36.9002 17.5071 35.359 18.2528 34.6431 19.2571H34.5238L35.0508 14.1562H43.9499V10.6364H31.5011L30.5366 21.375L34.3647 22.0611C34.9911 21.2159 36.2042 20.6889 37.4073 20.6889C39.4556 20.6989 40.9272 22.1804 40.9272 24.3182C40.9272 26.4361 39.4854 27.8977 37.467 27.8977C35.7567 27.8977 34.3746 26.8239 34.2752 25.2429H30.0991C30.1786 28.7628 33.2511 31.2784 37.467 31.2784Z" fill="#F5453D"/>
<path d="M4.02202 21.9395H5.19531L5.20526 20.791C7.35795 20.627 8.60582 19.4835 8.6108 17.7584C8.60582 16.0631 7.32812 15.1632 5.55824 14.7655L5.26491 14.6959L5.2848 12.2101C5.94602 12.3642 6.34872 12.7868 6.40838 13.4132H8.47159C8.44673 11.7676 7.21875 10.5893 5.30469 10.3805L5.31463 9.2122H4.14134L4.13139 10.3706C2.1875 10.5595 0.815341 11.7328 0.825284 13.4281C0.820312 14.9295 1.87926 15.7896 3.59943 16.2023L4.0767 16.3216L4.05185 18.9515C3.24148 18.7974 2.6946 18.3003 2.63991 17.47H0.556818C0.606534 19.4785 1.92401 20.6021 4.03196 20.7861L4.02202 21.9395ZM5.22514 18.9515L5.24503 16.6298C6.01562 16.8734 6.43324 17.1866 6.43821 17.7534C6.43324 18.355 5.97585 18.8024 5.22514 18.9515ZM4.09162 14.3926C3.47017 14.1788 3.02273 13.8557 3.03267 13.2839C3.03267 12.752 3.41051 12.3393 4.11151 12.1952L4.09162 14.3926Z" fill="#F5453D"/>
<path d="M52.832 22.625H51.7891L49.2109 32.2031H50.2539L52.832 22.625ZM56.7354 31H57.9033V27.3008C57.9033 26.4922 58.4697 25.9297 59.1338 25.9297C59.7822 25.9297 60.2314 26.3594 60.2314 27.0117V31H61.3955V27.1758C61.3955 26.4531 61.8369 25.9297 62.5986 25.9297C63.2158 25.9297 63.7236 26.2734 63.7236 27.0859V31H64.8916V26.9766C64.8916 25.6055 64.126 24.9219 63.04 24.9219C62.1768 24.9219 61.5283 25.3359 61.2393 25.9766H61.1768C60.915 25.3203 60.3643 24.9219 59.5635 24.9219C58.7705 24.9219 58.1807 25.3164 57.9307 25.9766H57.8564V25H56.7354V31ZM68.9844 31.1211C70.6758 31.1211 71.7813 29.8828 71.7813 28.0273C71.7813 26.1602 70.6758 24.9219 68.9844 24.9219C67.293 24.9219 66.1875 26.1602 66.1875 28.0273C66.1875 29.8828 67.293 31.1211 68.9844 31.1211ZM68.9883 30.1406C67.8828 30.1406 67.3672 29.1758 67.3672 28.0234C67.3672 26.875 67.8828 25.8984 68.9883 25.8984C70.0859 25.8984 70.6016 26.875 70.6016 28.0234C70.6016 29.1758 70.0859 30.1406 68.9883 30.1406ZM74.2529 27.4375C74.2529 26.4805 74.8389 25.9336 75.6514 25.9336C76.4443 25.9336 76.9248 26.4531 76.9248 27.3242V31H78.0928V27.1836C78.0928 25.6992 77.2764 24.9219 76.0498 24.9219C75.1475 24.9219 74.5576 25.3398 74.2803 25.9766H74.2061V25H73.085V31H74.2529V27.4375ZM82.46 25H81.2295V23.5625H80.0615V25H79.1826V25.9375H80.0615V29.4805C80.0576 30.5703 80.8896 31.0977 81.8115 31.0781C82.1826 31.0742 82.4326 31.0039 82.5693 30.9531L82.3584 29.9883C82.2803 30.0039 82.1357 30.0391 81.9482 30.0391C81.5693 30.0391 81.2295 29.9141 81.2295 29.2383V25.9375H82.46V25ZM85.0488 27.4375C85.0488 26.4805 85.6543 25.9336 86.4863 25.9336C87.291 25.9336 87.7715 26.4453 87.7715 27.3242V31H88.9395V27.1836C88.9395 25.6875 88.1191 24.9219 86.8848 24.9219C85.9512 24.9219 85.3887 25.3281 85.1074 25.9766H85.0332V23H83.8809V31H85.0488V27.4375Z" fill="white" fill-opacity="0.8"/>
</svg>
