<svg width="103" height="40" viewBox="0 0 103 40" fill="none" xmlns="http://www.w3.org/2000/svg">
<path d="M22.5099 10.6364H18.4631L13.4219 13.8281V17.6463L18.0852 14.723H18.2045V31H22.5099V10.6364ZM36.2092 10.6364H32.1623L27.1211 13.8281V17.6463L31.7844 14.723H31.9038V31H36.2092V10.6364ZM48.4865 31.2784C53.0206 31.2784 56.103 28.3253 56.093 24.2088C56.103 20.3111 53.3786 17.5071 49.7095 17.5071C47.9197 17.5071 46.3786 18.2528 45.6626 19.2571H45.5433L46.0703 14.1562H54.9695V10.6364H42.5206L41.5561 21.375L45.3842 22.0611C46.0107 21.2159 47.2237 20.6889 48.4268 20.6889C50.4751 20.6989 51.9467 22.1804 51.9467 24.3182C51.9467 26.4361 50.505 27.8977 48.4865 27.8977C46.7763 27.8977 45.3942 26.8239 45.2947 25.2429H41.1186C41.1982 28.7628 44.2706 31.2784 48.4865 31.2784Z" fill="#F5453D"/>
<path d="M4.02202 21.9395H5.19531L5.20526 20.791C7.35795 20.627 8.60582 19.4835 8.6108 17.7584C8.60582 16.0631 7.32812 15.1632 5.55824 14.7655L5.26491 14.6959L5.2848 12.2101C5.94602 12.3642 6.34872 12.7868 6.40838 13.4132H8.47159C8.44673 11.7676 7.21875 10.5893 5.30469 10.3805L5.31463 9.2122H4.14134L4.13139 10.3706C2.1875 10.5595 0.815341 11.7328 0.825284 13.4281C0.820312 14.9295 1.87926 15.7896 3.59943 16.2023L4.0767 16.3216L4.05185 18.9515C3.24148 18.7974 2.6946 18.3003 2.63991 17.47H0.556818C0.606534 19.4785 1.92401 20.6021 4.03196 20.7861L4.02202 21.9395ZM5.22514 18.9515L5.24503 16.6298C6.01562 16.8734 6.43324 17.1866 6.43821 17.7534C6.43324 18.355 5.97585 18.8024 5.22514 18.9515ZM4.09162 14.3926C3.47017 14.1788 3.02273 13.8557 3.03267 13.2839C3.03267 12.752 3.41051 12.3393 4.11151 12.1952L4.09162 14.3926Z" fill="#F5453D"/>
<path d="M65.832 22.625H64.7891L62.2109 32.2031H63.2539L65.832 22.625ZM69.7354 31H70.9033V27.3008C70.9033 26.4922 71.4697 25.9297 72.1338 25.9297C72.7822 25.9297 73.2314 26.3594 73.2314 27.0117V31H74.3955V27.1758C74.3955 26.4531 74.8369 25.9297 75.5986 25.9297C76.2158 25.9297 76.7236 26.2734 76.7236 27.0859V31H77.8916V26.9766C77.8916 25.6055 77.126 24.9219 76.04 24.9219C75.1768 24.9219 74.5283 25.3359 74.2393 25.9766H74.1768C73.915 25.3203 73.3643 24.9219 72.5635 24.9219C71.7705 24.9219 71.1807 25.3164 70.9307 25.9766H70.8564V25H69.7354V31ZM81.9844 31.1211C83.6758 31.1211 84.7813 29.8828 84.7813 28.0273C84.7813 26.1602 83.6758 24.9219 81.9844 24.9219C80.293 24.9219 79.1875 26.1602 79.1875 28.0273C79.1875 29.8828 80.293 31.1211 81.9844 31.1211ZM81.9883 30.1406C80.8828 30.1406 80.3672 29.1758 80.3672 28.0234C80.3672 26.875 80.8828 25.8984 81.9883 25.8984C83.0859 25.8984 83.6016 26.875 83.6016 28.0234C83.6016 29.1758 83.0859 30.1406 81.9883 30.1406ZM87.2529 27.4375C87.2529 26.4805 87.8389 25.9336 88.6514 25.9336C89.4443 25.9336 89.9248 26.4531 89.9248 27.3242V31H91.0928V27.1836C91.0928 25.6992 90.2764 24.9219 89.0498 24.9219C88.1475 24.9219 87.5576 25.3398 87.2803 25.9766H87.2061V25H86.085V31H87.2529V27.4375ZM95.46 25H94.2295V23.5625H93.0615V25H92.1826V25.9375H93.0615V29.4805C93.0576 30.5703 93.8896 31.0977 94.8115 31.0781C95.1826 31.0742 95.4326 31.0039 95.5693 30.9531L95.3584 29.9883C95.2803 30.0039 95.1357 30.0391 94.9482 30.0391C94.5693 30.0391 94.2295 29.9141 94.2295 29.2383V25.9375H95.46V25ZM98.0488 27.4375C98.0488 26.4805 98.6543 25.9336 99.4863 25.9336C100.291 25.9336 100.771 26.4453 100.771 27.3242V31H101.939V27.1836C101.939 25.6875 101.119 24.9219 99.8848 24.9219C98.9512 24.9219 98.3887 25.3281 98.1074 25.9766H98.0332V23H96.8809V31H98.0488V27.4375Z" fill="white" fill-opacity="0.8"/>
</svg>
