<svg width="98" height="98" viewBox="0 0 98 98" fill="none" xmlns="http://www.w3.org/2000/svg">
<path d="M108 -117L215 -10.0001L108 96.9999C108 96.9999 89.5 53.5 59 38C28.5 22.5 1.00006 -10.0001 1.00006 -10.0001L108 -117Z" fill="#F5453D"/>
<path d="M46.3658 9.21933C35.2313 2.74691 30.0002 8.49859 24.4245 1.96651C16.3204 -7.5277 26.0431 -15.393 27.3919 -29.8593C34.3768 -35.6268 48.5338 -28.4045 54.3268 -21.3888C67.5003 -12.6801 57.5002 15.6917 46.3658 9.21933Z" fill="#F65D55"/>
<path d="M48.4219 14.411L53.1294 7.06217L55.8852 8.82747C56.4497 9.18911 56.856 9.59777 57.1039 10.0535C57.3542 10.5107 57.4594 10.9863 57.4196 11.4804C57.3837 11.9736 57.2163 12.4534 56.9175 12.9199C56.6156 13.3912 56.2482 13.7462 55.8152 13.985C55.3822 14.2238 54.9045 14.3244 54.3821 14.2866C53.8612 14.2465 53.3173 14.0449 52.7504 13.6817L50.9239 12.5117L51.625 11.4173L53.272 12.4723C53.6022 12.6838 53.9092 12.7996 54.1933 12.8196C54.4774 12.8396 54.734 12.7813 54.9632 12.6447C55.1948 12.5097 55.3941 12.3118 55.5611 12.051C55.7282 11.7903 55.8238 11.5277 55.8482 11.2632C55.8749 11.0003 55.817 10.7457 55.6746 10.4992C55.5361 10.252 55.3006 10.0218 54.9681 9.80882L53.7481 9.02731L49.7532 15.2638L48.4219 14.411ZM57.1236 20.1369C56.5854 19.7921 56.1948 19.3749 55.9518 18.8852C55.7088 18.3955 55.6148 17.8681 55.6699 17.3028C55.7273 16.7391 55.9384 16.1726 56.3031 15.6032C56.6678 15.0339 57.095 14.6041 57.5846 14.3138C58.0765 14.025 58.5957 13.8887 59.1422 13.9047C59.6886 13.9207 60.2309 14.1011 60.7692 14.4459C61.3074 14.7907 61.698 15.2079 61.941 15.6976C62.184 16.1872 62.276 16.7151 62.217 17.2812C62.1604 17.8489 61.9498 18.4174 61.5851 18.9867C61.2204 19.5561 60.7928 19.9839 60.3023 20.2703C59.8143 20.5582 59.297 20.6941 58.7506 20.6781C58.2042 20.6621 57.6619 20.4817 57.1236 20.1369ZM57.7974 19.1009C58.0892 19.2878 58.3846 19.364 58.6834 19.3294C58.9838 19.2924 59.2691 19.1682 59.5395 18.9567C59.8123 18.7469 60.0559 18.4745 60.2705 18.1396C60.4865 17.8023 60.6329 17.4658 60.7095 17.1303C60.79 16.7939 60.7843 16.4815 60.6924 16.1932C60.6004 15.9049 60.4085 15.6673 60.1166 15.4803C59.8176 15.2888 59.5167 15.2107 59.214 15.2462C58.9136 15.2832 58.6263 15.4079 58.352 15.6201C58.0816 15.8316 57.8384 16.1059 57.6223 16.4432C57.4078 16.7781 57.261 17.1126 57.182 17.4466C57.1054 17.7821 57.1131 18.0941 57.205 18.3824C57.3009 18.6698 57.4984 18.9093 57.7974 19.1009ZM59.6121 24.4941L64.4667 16.9156L65.7441 17.7339L65.1603 18.6453L65.2356 18.6936C65.3884 18.6025 65.5741 18.5207 65.7926 18.4482C66.0127 18.3732 66.2613 18.3486 66.5384 18.3743C66.817 18.3975 67.1177 18.5126 67.4407 18.7195C67.8665 18.9922 68.1807 19.347 68.3834 19.7838C68.5899 20.2198 68.6581 20.7139 68.5878 21.266C68.5214 21.8173 68.2921 22.3991 67.8998 23.0115C67.5121 23.6167 67.0834 24.0675 66.6136 24.3637C66.1438 24.6599 65.6666 24.8097 65.182 24.8131C64.6974 24.8164 64.2386 24.6794 63.8056 24.402C63.4899 24.1998 63.2616 23.9793 63.1209 23.7408C62.9803 23.5022 62.894 23.2681 62.8622 23.0386C62.8344 22.8082 62.8287 22.6038 62.8451 22.4254L62.7913 22.3909L60.9111 25.3262L59.6121 24.4941ZM63.9752 20.4874C63.7469 20.8438 63.5972 21.1882 63.526 21.5205C63.4572 21.8543 63.4703 22.1579 63.5651 22.4312C63.6639 22.7036 63.8508 22.9279 64.1259 23.1042C64.413 23.288 64.7024 23.3655 64.9943 23.3365C65.2876 23.3051 65.5692 23.1869 65.8389 22.9818C66.1125 22.7759 66.3597 22.5006 66.5803 22.1562C66.7994 21.8141 66.945 21.4789 67.017 21.1505C67.089 20.8221 67.0764 20.5205 66.9792 20.2457C66.882 19.9709 66.6886 19.7408 66.3992 19.5553C66.1217 19.3776 65.8393 19.2996 65.5521 19.3214C65.2648 19.3432 64.9867 19.4535 64.7177 19.6523C64.451 19.8526 64.2035 20.131 63.9752 20.4874ZM72.2493 26.405L74.295 23.2114L75.594 24.0435L72.0634 29.5551L70.8039 28.7483L71.4314 27.7687L71.374 27.7319C71.0519 27.9608 70.6857 28.0822 70.2754 28.096C69.8674 28.1113 69.4565 27.9864 69.0427 27.7213C68.6815 27.4899 68.4135 27.2052 68.2386 26.8672C68.0677 26.5283 68.0034 26.1548 68.0456 25.7466C68.0893 25.336 68.2521 24.9106 68.5341 24.4704L70.7821 20.9611L72.081 21.7932L69.9617 25.1016C69.738 25.4508 69.656 25.7896 69.7155 26.1179C69.7751 26.4463 69.9604 26.71 70.2714 26.9092C70.4628 27.0318 70.6781 27.1039 70.9172 27.1256C71.1564 27.1472 71.3924 27.1027 71.6252 26.992C71.862 26.8805 72.07 26.6848 72.2493 26.405ZM79.4055 23.894L74.6981 31.2428L73.3991 30.4107L78.1066 23.0619L79.4055 23.894ZM77.5486 33.2256C77.1993 33.0019 76.9246 32.7382 76.7244 32.4345C76.5281 32.13 76.4275 31.8024 76.4227 31.4518C76.4203 31.1027 76.5347 30.7476 76.7661 30.3864C76.9653 30.0754 77.1875 29.855 77.4326 29.7252C77.6776 29.5954 77.9385 29.5331 78.2152 29.5383C78.4919 29.5435 78.7746 29.5947 79.0632 29.6919C79.3558 29.7882 79.6452 29.9078 79.9315 30.0507C80.2759 30.2241 80.557 30.362 80.7748 30.4644C80.9942 30.5644 81.1677 30.6148 81.2954 30.6156C81.427 30.6156 81.5326 30.5534 81.6123 30.429L81.6261 30.4075C81.7992 30.1371 81.8532 29.8765 81.7879 29.6255C81.7226 29.3745 81.5393 29.1525 81.2379 28.9594C80.9197 28.7556 80.6229 28.6633 80.3474 28.6825C80.0744 28.7033 79.845 28.7875 79.6593 28.9351L78.5568 27.9859C78.8671 27.7123 79.2042 27.5336 79.5684 27.4497C79.934 27.3634 80.3119 27.3659 80.7021 27.4573C81.0938 27.5463 81.4823 27.7141 81.8674 27.9608C82.1329 28.1309 82.3774 28.3314 82.6007 28.5621C82.824 28.7929 82.9985 29.0498 83.1242 29.3327C83.2515 29.6133 83.3028 29.9178 83.278 30.246C83.2557 30.5759 83.1273 30.9238 82.8929 31.2898L80.5299 34.9785L79.2812 34.1786L79.7662 33.4215L79.7231 33.3939C79.5461 33.4965 79.343 33.5687 79.1136 33.6107C78.8882 33.6519 78.6418 33.6442 78.3744 33.5876C78.1109 33.5302 77.8356 33.4095 77.5486 33.2256ZM78.4973 32.4872C78.758 32.6542 79.017 32.7476 79.2743 32.7673C79.5331 32.7847 79.7691 32.7402 79.9823 32.6338C80.1979 32.529 80.3708 32.3749 80.5011 32.1716L80.9171 31.5221C80.855 31.5296 80.7657 31.5162 80.6492 31.4821C80.5351 31.4495 80.4114 31.4057 80.278 31.3506C80.1446 31.2955 80.0139 31.2388 79.886 31.1804C79.758 31.1221 79.6472 31.0713 79.5534 31.0281C79.3428 30.9303 79.1418 30.8623 78.9504 30.824C78.7589 30.7857 78.5845 30.7921 78.427 30.843C78.2711 30.8916 78.1395 30.9996 78.0322 31.1671C77.879 31.4063 77.8506 31.6428 77.9471 31.8767C78.0436 32.1105 78.227 32.3141 78.4973 32.4872ZM81.8361 35.8152L85.3667 30.3036L86.6262 31.1104L86.0377 32.029L86.0951 32.0658C86.3994 31.812 86.7287 31.6771 87.0831 31.6612C87.4413 31.6444 87.7783 31.7371 88.0941 31.9394C88.1659 31.9854 88.2437 32.0403 88.3276 32.1041C88.4155 32.1672 88.4854 32.2238 88.5376 32.2741L87.7722 33.469C87.7294 33.4146 87.6528 33.3419 87.5424 33.2509C87.4359 33.1591 87.3276 33.078 87.2176 33.0075C86.9808 32.8558 86.7349 32.7708 86.4801 32.7526C86.2291 32.7336 85.9923 32.7793 85.7698 32.8897C85.5472 33.0002 85.3608 33.1726 85.2106 33.4071L83.135 36.6473L81.8361 35.8152Z" fill="white" fill-opacity="0.8"/>
</svg>
